<svg version="1.1" id="Capa_1" xmlns="http://www.w3.org/2000/svg" xmlns:xlink="http://www.w3.org/1999/xlink" x="0px" y="0px"
	 width="139px" height="48.5px" viewBox="0 0 139 48.5" style="enable-background:new 0 0 139 48.5;" xml:space="preserve">
<style type="text/css">
<![CDATA[
	.st0{fill:#0033a0;}
	.st1{fill:#48b2cd;}
]]>
</style>
<g>
	<path class="st1" d="M118,40.2c-1.6,1.1-3.7,2.1-6.1,2.9c-2.5,0.9-5.5,1.6-8.5,2.1c0,0-0.3,0-0.3,0.1v0.1c1,0.4,1.3,0.7,2.1,0.7
		c1,0.2,2.2,0,3.5-0.3c1.2-0.3,2.3-0.8,3.7-1.5c1.2-0.6,2.4-1.2,3.4-2c1-0.7,1.7-1.4,2.2-2C118.1,40.3,118.1,40.2,118,40.2z"/>
	<path class="st1" d="M117.8,38.8c0-0.1,0-0.2-0.1-0.2c-2.5,1-7.8,2-11.1,2.5c-2.9,0.4-5.3,0.5-6.7,0.6l-0.7,0.1
		c-0.1,0-0.2,0-0.2,0.1l0.1,0.1c0.2,0.3,1.1,1.1,2.7,1.3c1.9,0.2,4.7-0.2,8.1-1.2C112.9,41.2,116.2,39.8,117.8,38.8z"/>
	<path class="st1" d="M117.5,43.1c-2.1,2-5.2,3.2-6.3,3.4c0,0-0.1,0-0.1,0.1c0,0.1,0.1,0.2,0.1,0.2c0.2,0.1,1.4,0.7,3.8-0.4
		C116.2,45.7,117,44.6,117.5,43.1C117.6,43.1,117.6,43.1,117.5,43.1z"/>
	<path class="st1" d="M105.5,13.1c0.6,0.7,1.4,0.7,2.4,1.7h0.1c0.2,0,16.5,4.1,20.9,5.3c1.9,0.6,3.4,0.9,4.1,1c0,0,0.1-0.1,0.1-0.1
		l-0.1-0.1c-2.7-1.1-19.5-7.6-25.8-10l-2.7-1.1h-0.2v0.1c0,0.2,0.2,1.6,0.8,2.4C105.2,12.5,105.3,12.9,105.5,13.1z"/>
	<path class="st1" d="M106.2,6.5c0.3,0.3,0.7,0.7,1.2,1c0.2,0.1,0.4,0.2,0.7,0.3l1.5,0.7c0.9,0.4,13.5,6.3,15.3,7.2
		c2.2,1.1,4.3,2,5.3,2.5c0.1,0.1,0.1,0,0.1-0.1c-2.4-1.5-11.4-7.1-17.9-11l-4.6-2.8L107,3.9l-1.6-1.1h-0.2c-0.1,0-0.1,0.2-0.1,0.2
		c0,0.2,0,1.5,0.3,2.4C105.7,5.7,105.9,6.2,106.2,6.5z"/>
	<path class="st1" d="M134.8,22.6c-2.1-0.4-28.5-5.1-28.4-5.1c-0.1,0-0.2,0.1-0.2,0.1v0.2c0,1.4,1.4,2.7,3.2,3.3
		c0.2,0.1,0.4,0.1,0.6,0.1c0,0,22.3,1.5,24.8,1.6C134.8,22.7,134.9,22.7,134.8,22.6L134.8,22.6z"/>
	<path class="st1" d="M133.8,23.8h-4.3h-7.9c-3.6,0-9.3,0.2-9.3,0.2l-0.1,0.2v0.1c0,0.2,0.4,0.8,0.7,1.2c0.7,0.7,1.5,1.2,2.3,1.2
		h0.2h0.3c0.1,0,17-2.4,17.9-2.5l0.1-0.2C133.9,24,133.9,23.8,133.8,23.8z"/>
	<path class="st1" d="M132.5,25.8c-1,0-5,1.3-8.6,2.2c-3,0.8-6.5,1.7-6.5,1.7c-0.3,0.2-0.2,0.2-0.2,0.3c0.1,0.2,0.2,0.4,0.5,0.8
		c0.6,0.9,1.3,0.8,2,0.6c0.2-0.1,12.3-5.1,12.9-5.5C132.6,25.8,132.6,25.8,132.5,25.8L132.5,25.8z"/>
	<path class="st1" d="M127.1,34.2c-1.6,1.4-4.1,3.5-6.7,5.7c-0.2,0.2-0.3,0.6-0.4,1c-0.1,0.7-0.5,1.6-0.5,1.6
		c-0.1,0.2,0,0.3,0.2,0.1c2-2.1,6.3-6.9,7.5-8.3C127.2,34.3,127.2,34.2,127.1,34.2z"/>
	<path class="st1" d="M131.2,28.1c-1.1,0.7-4.3,2.5-6.8,4.1c-1.5,0.9-3.3,2-4.3,2.5c-0.2,0-0.2,0-0.2,0.3c0,0,0.1,0.3,0.1,0.7
		c0.2,1.4,0.7,1.2,1.6,0.6l0.1-0.1c3-2.4,8.4-7,9.6-7.9C131.2,28.2,131.2,28.1,131.2,28.1z"/>
</g>
<path class="st0" d="M14.2,26.6l4.7,1.2c2,0.5,2.6,1.7,2.6,3c0,1.9-1.2,3-4.1,3l-8.9,0.1v4h9.1c5.5,0,8.7-3,8.7-6.9
	c0-3.9-1.6-5.9-5.7-7l-5.3-1.5c-1.5-0.4-2.8-1.1-2.8-2.9c0-1.9,1.1-2.8,3.5-2.8h4.8c2.1,0,4.6-0.7,4.6-4.1h-9
	c-5.5,0-8.7,2.8-8.7,6.8C7.6,23.4,9.9,25.5,14.2,26.6 M40,38.3c4.8,0,9.4-2.3,9.4-7V17.8c0-3.7-1.4-4.9-4.4-4.9v17.4
	c0,2.5-2.1,3.8-4.8,3.8c-2.9,0-4.8-1.3-4.8-3.8v-13c0-3.7-2.3-4.3-4.3-4.3v18.4C30.9,36,35.1,38.3,40,38.3 M59.6,22.3
	c0-3.4,1.8-5.3,5.2-5.3h1.3c3.9,0,4.4-2,4.4-4.1h-6.1c-5.4,0-9.2,3.1-9.2,9.6V38h4.3L59.6,22.3L59.6,22.3z M81,38.5
	c5.5,0,7.5-3.9,7.5-3.9c0.3,2.5,1.7,3.4,4.5,3.4V16.4v-3.6h-9.8h-1.1c-5.8,0-11.3,4.3-11.6,12.7C70.4,33.1,74.3,38.5,81,38.5
	 M82.2,16.9h0.8h5.1v10.7c0,3.4-2,6.8-6.3,6.8c-3.8,0-6.6-2.6-6.5-8.8C75.5,19.6,78.5,16.9,82.2,16.9"/>
</svg>
